<mxfile host="app.diagrams.net" agent="Mozilla/5.0 (Macintosh; Intel Mac OS X 10_15_7) AppleWebKit/537.36 (KHTML, like Gecko) Chrome/135.0.0.0 Safari/537.36" version="26.2.14">
  <diagram name="Page-1" id="DvUaKJyOqac1Smqoh1h7">
    <mxGraphModel dx="946" dy="620" grid="1" gridSize="10" guides="1" tooltips="1" connect="1" arrows="1" fold="1" page="1" pageScale="1" pageWidth="850" pageHeight="1100" math="0" shadow="0">
      <root>
        <mxCell id="0" />
        <mxCell id="1" parent="0" />
        <mxCell id="rmy0PVdxEjZRml6yRQyU-3" value="" style="edgeStyle=orthogonalEdgeStyle;rounded=0;orthogonalLoop=1;jettySize=auto;html=1;" edge="1" parent="1" source="rmy0PVdxEjZRml6yRQyU-1" target="rmy0PVdxEjZRml6yRQyU-2">
          <mxGeometry relative="1" as="geometry" />
        </mxCell>
        <mxCell id="rmy0PVdxEjZRml6yRQyU-10" value="Slow" style="edgeLabel;html=1;align=center;verticalAlign=middle;resizable=0;points=[];" vertex="1" connectable="0" parent="rmy0PVdxEjZRml6yRQyU-3">
          <mxGeometry x="0.0083" y="1" relative="1" as="geometry">
            <mxPoint as="offset" />
          </mxGeometry>
        </mxCell>
        <mxCell id="rmy0PVdxEjZRml6yRQyU-1" value="API" style="rounded=1;whiteSpace=wrap;html=1;" vertex="1" parent="1">
          <mxGeometry x="160" y="80" width="80" height="80" as="geometry" />
        </mxCell>
        <mxCell id="rmy0PVdxEjZRml6yRQyU-2" value="Database&lt;div&gt;&lt;br&gt;&lt;/div&gt;&lt;div style=&quot;text-align: left;&quot;&gt;- durable&lt;/div&gt;" style="rounded=1;whiteSpace=wrap;html=1;" vertex="1" parent="1">
          <mxGeometry x="480" y="80" width="80" height="80" as="geometry" />
        </mxCell>
        <mxCell id="rmy0PVdxEjZRml6yRQyU-4" value="" style="edgeStyle=orthogonalEdgeStyle;rounded=0;orthogonalLoop=1;jettySize=auto;html=1;" edge="1" parent="1" source="rmy0PVdxEjZRml6yRQyU-5" target="rmy0PVdxEjZRml6yRQyU-6">
          <mxGeometry relative="1" as="geometry" />
        </mxCell>
        <mxCell id="rmy0PVdxEjZRml6yRQyU-11" value="Fast" style="edgeLabel;html=1;align=center;verticalAlign=middle;resizable=0;points=[];" vertex="1" connectable="0" parent="rmy0PVdxEjZRml6yRQyU-4">
          <mxGeometry relative="1" as="geometry">
            <mxPoint as="offset" />
          </mxGeometry>
        </mxCell>
        <mxCell id="rmy0PVdxEjZRml6yRQyU-5" value="API" style="rounded=1;whiteSpace=wrap;html=1;" vertex="1" parent="1">
          <mxGeometry x="160" y="240" width="80" height="80" as="geometry" />
        </mxCell>
        <mxCell id="rmy0PVdxEjZRml6yRQyU-8" value="" style="edgeStyle=orthogonalEdgeStyle;rounded=0;orthogonalLoop=1;jettySize=auto;html=1;" edge="1" parent="1" source="rmy0PVdxEjZRml6yRQyU-6" target="rmy0PVdxEjZRml6yRQyU-7">
          <mxGeometry relative="1" as="geometry" />
        </mxCell>
        <mxCell id="rmy0PVdxEjZRml6yRQyU-6" value="Redis&lt;div&gt;&lt;br&gt;&lt;div style=&quot;text-align: left;&quot;&gt;- in-memory cache&lt;/div&gt;&lt;/div&gt;&lt;div style=&quot;text-align: left;&quot;&gt;- ephemeral&lt;/div&gt;" style="rounded=1;whiteSpace=wrap;html=1;" vertex="1" parent="1">
          <mxGeometry x="320" y="240" width="120" height="80" as="geometry" />
        </mxCell>
        <mxCell id="rmy0PVdxEjZRml6yRQyU-7" value="Database&lt;div&gt;&lt;br&gt;&lt;/div&gt;&lt;div style=&quot;text-align: left;&quot;&gt;- durable&lt;/div&gt;" style="rounded=1;whiteSpace=wrap;html=1;" vertex="1" parent="1">
          <mxGeometry x="480" y="240" width="80" height="80" as="geometry" />
        </mxCell>
        <mxCell id="rmy0PVdxEjZRml6yRQyU-12" value="" style="edgeStyle=orthogonalEdgeStyle;rounded=0;orthogonalLoop=1;jettySize=auto;html=1;" edge="1" parent="1" source="rmy0PVdxEjZRml6yRQyU-14" target="rmy0PVdxEjZRml6yRQyU-16">
          <mxGeometry relative="1" as="geometry" />
        </mxCell>
        <mxCell id="rmy0PVdxEjZRml6yRQyU-13" value="Fast" style="edgeLabel;html=1;align=center;verticalAlign=middle;resizable=0;points=[];" vertex="1" connectable="0" parent="rmy0PVdxEjZRml6yRQyU-12">
          <mxGeometry relative="1" as="geometry">
            <mxPoint as="offset" />
          </mxGeometry>
        </mxCell>
        <mxCell id="rmy0PVdxEjZRml6yRQyU-14" value="API" style="rounded=1;whiteSpace=wrap;html=1;" vertex="1" parent="1">
          <mxGeometry x="160" y="400" width="80" height="80" as="geometry" />
        </mxCell>
        <mxCell id="rmy0PVdxEjZRml6yRQyU-16" value="&lt;b&gt;Redis (as a primary database)&lt;/b&gt;&lt;div&gt;&lt;div style=&quot;text-align: left;&quot;&gt;- data persistence&lt;/div&gt;&lt;/div&gt;&lt;div style=&quot;text-align: left;&quot;&gt;- json support&lt;/div&gt;&lt;div style=&quot;text-align: left;&quot;&gt;- search&lt;/div&gt;&lt;div style=&quot;text-align: left;&quot;&gt;- object mapping&lt;/div&gt;" style="rounded=1;whiteSpace=wrap;html=1;" vertex="1" parent="1">
          <mxGeometry x="320" y="400" width="240" height="80" as="geometry" />
        </mxCell>
      </root>
    </mxGraphModel>
  </diagram>
</mxfile>
